<svg width="26" height="26" viewBox="0 0 26 26" fill="none" xmlns="http://www.w3.org/2000/svg">
<g clip-path="url(#clip0_175_1842)">
<path opacity="0.2" d="M25.9615 12.9808C25.9615 5.81169 20.1499 0 12.9808 0C5.81169 0 0 5.81169 0 12.9808C0 20.1499 5.81169 25.9615 12.9808 25.9615C20.1499 25.9615 25.9615 20.1499 25.9615 12.9808Z" fill="black"/>
<path opacity="0.8" d="M17.3077 5.76929H15.1442C14.1879 5.76929 13.2708 6.14918 12.5946 6.82539C11.9184 7.50161 11.5385 8.41875 11.5385 9.37506V11.5385H9.375V14.4231H11.5385V20.1924H14.4231V14.4231H16.5865L17.3077 11.5385H14.4231V9.37506C14.4231 9.18379 14.4991 9.00037 14.6343 8.86512C14.7695 8.72988 14.953 8.6539 15.1442 8.6539H17.3077V5.76929Z" fill="white"/>
</g>
<defs>
<clipPath id="clip0_175_1842">
<rect width="25.9615" height="25.9615" fill="white"/>
</clipPath>
</defs>
</svg>
