<svg width="9552" height="5312" viewBox="0 0 9552 5312" fill="none" xmlns="http://www.w3.org/2000/svg">
<rect width="9552" height="5312" fill="#1D1D1D"/>
<path d="M5448 2636V2268C5448 2256.95 5456.95 2248 5468 2248H6284C6295.05 2248 6304 2239.05 6304 2228V1828C6304 1816.95 6295.05 1808 6284 1808H5028C5016.95 1808 5008 1816.95 5008 1828V2636C5008 2647.05 5016.95 2656 5028 2656H5428C5439.05 2656 5448 2647.05 5448 2636Z" fill="white" stroke="white"/>
<path d="M5864 2673V3041C5864 3052.05 5855.05 3061 5844 3061H5028C5016.95 3061 5008 3069.95 5008 3081V3481C5008 3492.05 5016.95 3501 5028 3501H6284C6295.05 3501 6304 3492.05 6304 3481V2673C6304 2661.95 6295.05 2653 6284 2653H5884C5872.95 2653 5864 2661.95 5864 2673Z" fill="white" stroke="white"/>
<path d="M3310 3501L2790 3501C2778.95 3501 2770 3492.05 2770 3481L2770 1801C2770 1789.95 2778.95 1781 2790 1781L3310 1781C3321.05 1781 3330 1789.95 3330 1801L3330 3481C3330 3492.05 3321.05 3501 3310 3501Z" fill="white" stroke="white"/>
<path d="M4767 3504L4247 3504C4235.95 3504 4227 3495.05 4227 3484L4227 2679C4227 2667.95 4235.95 2659 4247 2659L4767 2659C4778.05 2659 4787 2667.95 4787 2679L4787 3484C4787 3495.05 4778.05 3504 4767 3504Z" fill="white" stroke="white"/>
<path d="M4642.47 3501.15L4072.44 3501.15C4065.04 3501.15 4058.25 3497.07 4054.78 3490.54L3167.63 1822.39C3160.55 1809.07 3170.2 1793 3185.29 1793L3798.7 1793C3806.25 1793 3813.15 1797.24 3816.55 1803.97L4660.32 3472.13C4667.05 3485.43 4657.38 3501.15 4642.47 3501.15Z" fill="white" stroke="white"/>
</svg>
