<svg width="27" height="26" viewBox="0 0 27 26" fill="none" xmlns="http://www.w3.org/2000/svg">
<path opacity="0.2" d="M26.923 12.9808C26.923 5.81169 21.1113 0 13.9422 0C6.77311 0 0.961426 5.81169 0.961426 12.9808C0.961426 20.1499 6.77311 25.9615 13.9422 25.9615C21.1113 25.9615 26.923 20.1499 26.923 12.9808Z" fill="black"/>
<path opacity="0.8" d="M20.8321 7.21785C20.2183 7.65141 19.5387 7.983 18.8194 8.19992C18.4334 7.7554 17.9204 7.4404 17.3497 7.2974C16.7791 7.15445 16.1783 7.19041 15.6287 7.40045C15.0792 7.61052 14.6072 7.98451 14.2769 8.47187C13.9464 8.95922 13.7735 9.53643 13.7814 10.1254V10.7672C12.655 10.7964 11.5388 10.5463 10.5323 10.039C9.52583 9.53175 8.66023 8.78312 8.01266 7.85975C8.01266 7.85975 5.44877 13.6362 11.2175 16.2035C9.89744 17.1008 8.3249 17.5507 6.73071 17.4872C12.4994 20.6964 19.5502 17.4872 19.5502 10.1061C19.5495 9.92737 19.5323 9.74903 19.4989 9.57343C20.153 8.92742 20.6147 8.11179 20.8321 7.21785Z" fill="white"/>
</svg>
